<svg width="200" height="255" viewBox="0 0 200 255" fill="none" xmlns="http://www.w3.org/2000/svg">
<path d="M197.33 63.8352C199.034 65.5398 200 67.8409 200 70.2557V245.455C200 250.483 195.937 254.545 190.909 254.545H9.09091C4.0625 254.545 0 250.483 0 245.455V9.09091C0 4.0625 4.0625 0 9.09091 0H129.744C132.159 0 134.489 0.96591 136.193 2.67045L197.33 63.8352ZM179.034 74.4318L125.568 20.9659V74.4318H179.034ZM134.437 162.858C130.125 162.716 125.54 163.048 120.332 163.699C113.429 159.44 108.781 153.591 105.48 144.997L105.784 143.753L106.136 142.281C107.358 137.131 108.014 133.372 108.21 129.582C108.358 126.722 108.199 124.082 107.69 121.636C106.753 116.355 103.017 113.267 98.3097 113.077C93.9205 112.898 89.8864 115.349 88.8551 119.148C87.1761 125.29 88.1591 133.372 91.7188 147.156C87.1847 157.966 81.1932 170.639 77.1733 177.707C71.8068 180.474 67.6278 182.991 64.1165 185.781C59.4858 189.466 56.5938 193.253 55.7983 197.23C55.4119 199.074 55.9943 201.483 57.321 203.457C58.8267 205.696 61.0937 207.151 63.8125 207.361C70.6733 207.892 79.1051 200.818 88.4148 184.844C89.3494 184.531 90.3381 184.202 91.5455 183.793L94.9261 182.651C97.0653 181.929 98.6165 181.412 100.151 180.915C106.798 178.75 111.827 177.384 116.401 176.605C124.349 180.861 133.537 183.651 139.724 183.651C144.832 183.651 148.284 181.003 149.531 176.835C150.625 173.176 149.759 168.932 147.406 166.585C144.974 164.196 140.503 163.054 134.437 162.858ZM63.9858 199.341V199.239L64.0227 199.142C64.4384 198.067 64.972 197.042 65.6136 196.085C66.8295 194.216 68.5028 192.25 70.5767 190.156C71.6903 189.034 72.8494 187.94 74.2102 186.713C74.5142 186.44 76.4574 184.71 76.821 184.369L79.9943 181.415L77.6875 185.088C74.1875 190.668 71.0227 194.685 68.3125 197.304C67.3153 198.27 66.4375 198.98 65.7273 199.438C65.4928 199.594 65.2446 199.729 64.9858 199.841C64.8693 199.889 64.767 199.918 64.6648 199.926C64.5568 199.94 64.4471 199.925 64.3466 199.884C64.2397 199.839 64.1484 199.763 64.0842 199.667C64.02 199.57 63.9858 199.457 63.9858 199.341ZM99.7642 137.33L99.1222 138.466L98.7244 137.222C97.8438 134.429 97.196 130.222 97.017 126.426C96.8125 122.108 97.1563 119.517 98.5199 119.517C100.435 119.517 101.312 122.585 101.381 127.202C101.443 131.259 100.804 135.48 99.7614 137.33H99.7642ZM98.1136 153.937L98.5483 152.787L99.142 153.866C102.463 159.901 106.773 164.935 111.511 168.443L112.534 169.199L111.287 169.455C106.648 170.415 102.327 171.858 96.4176 174.241C97.0341 173.991 90.2756 176.759 88.5653 177.415L87.0739 177.986L87.8693 176.599C91.3778 170.491 94.6193 163.156 98.1108 153.937H98.1136ZM142.892 175.602C140.659 176.483 135.852 175.696 127.389 172.082L125.241 171.168L127.571 170.997C134.19 170.506 138.878 170.869 141.611 171.869C142.776 172.295 143.551 172.832 143.895 173.446C144.076 173.737 144.137 174.086 144.065 174.421C143.992 174.755 143.793 175.048 143.509 175.239C143.328 175.398 143.119 175.521 142.892 175.602Z" fill="#E83508"/>
</svg>
