<svg width="58" height="68" viewBox="0 0 58 68" fill="none" xmlns="http://www.w3.org/2000/svg">
<rect width="57.8" height="68" rx="4" fill="#FFF2DE"/>
<path d="M32.4783 45.8927C31.9673 45.8923 31.5137 45.5651 31.3523 45.0803L25.3516 27.0806L19.3509 45.0803C19.12 45.6943 18.435 46.0049 17.821 45.7739C17.2398 45.5553 16.925 44.9257 17.0989 44.3295L24.2256 22.9495C24.5061 22.3276 25.2377 22.0509 25.8596 22.3315C26.1341 22.4553 26.3538 22.6751 26.4776 22.9495L33.6043 44.3295C33.8116 44.9519 33.4751 45.6245 32.8528 45.8318C32.7319 45.872 32.6056 45.8926 32.4783 45.8927Z" fill="#FFAB2B"/>
<path d="M30.1027 38.7661H20.6005C19.9445 38.7661 19.4127 38.2342 19.4127 37.5783C19.4127 36.9223 19.9445 36.3904 20.6005 36.3904H30.1027C30.7587 36.3904 31.2906 36.9223 31.2906 37.5783C31.2904 38.2342 30.7587 38.7661 30.1027 38.7661Z" fill="#FFAB2B"/>
<path d="M39.6049 45.8928C38.9489 45.8928 38.4171 45.3609 38.4171 44.7049V28.0761C38.4171 27.4201 38.9489 26.8882 39.6049 26.8882C40.2609 26.8882 40.7927 27.4201 40.7927 28.0761V44.7049C40.7927 45.3609 40.2609 45.8928 39.6049 45.8928Z" fill="#FFAB2B"/>
<path d="M39.6049 24.5127C40.2609 24.5127 40.7927 23.9809 40.7927 23.3249C40.7927 22.6689 40.2609 22.1371 39.6049 22.1371C38.9489 22.1371 38.4171 22.6689 38.4171 23.3249C38.4171 23.9809 38.9489 24.5127 39.6049 24.5127Z" fill="#FFAB2B"/>
</svg>
