<svg width="200" height="255" viewBox="0 0 200 255" fill="none" xmlns="http://www.w3.org/2000/svg">
<path d="M197.33 63.7962C199.034 65.4997 200 67.7994 200 70.2127V245.304C200 250.33 195.937 254.39 190.909 254.39H9.09091C4.0625 254.39 0 250.33 0 245.304V9.08535C0 4.06001 4.0625 0 9.09091 0H129.744C132.159 0 134.489 0.965319 136.193 2.66882L197.33 63.7962ZM179.034 74.3863L125.568 20.9531V74.3863H179.034ZM38.6364 20.442V38.6127H56.8182V20.442H38.6364ZM56.8182 38.6127V56.7834H75V38.6127H56.8182ZM38.6364 56.7834V74.9541H56.8182V56.7834H38.6364ZM56.8182 74.9541V93.1248H75V74.9541H56.8182ZM38.6364 93.1248V111.296H56.8182V93.1248H38.6364ZM56.8182 111.296V129.466H75V111.296H56.8182ZM38.6364 129.466V147.637H56.8182V129.466H38.6364ZM38.6364 147.637V193.064H75V147.637H38.6364ZM52.2727 161.265H61.3636V179.436H52.2727V161.265Z" fill="#FFBE00"/>
</svg>
