<svg width="200" height="231" viewBox="0 0 200 231" fill="none" xmlns="http://www.w3.org/2000/svg">
<path d="M30.7693 123.077H38.4616C40.5017 123.077 42.4583 122.266 43.9009 120.824C45.3435 119.381 46.1539 117.425 46.1539 115.385C46.1539 113.344 45.3435 111.388 43.9009 109.945C42.4583 108.503 40.5017 107.692 38.4616 107.692H30.7693V123.077ZM92.3077 123.077H100C102.04 123.077 103.997 122.266 105.439 120.824C106.882 119.381 107.692 117.425 107.692 115.385C107.692 113.344 106.882 111.388 105.439 109.945C103.997 108.503 102.04 107.692 100 107.692H92.3077V123.077Z" fill="#FFBE00"/>
<path fill-rule="evenodd" clip-rule="evenodd" d="M0 23.0769C0 16.9565 2.43131 11.0868 6.75907 6.75907C11.0868 2.43131 16.9565 0 23.0769 0L149.338 0L200 50.6615V207.692C200 213.813 197.569 219.682 193.241 224.01C188.913 228.338 183.043 230.769 176.923 230.769H23.0769C16.9565 230.769 11.0868 228.338 6.75907 224.01C2.43131 219.682 0 213.813 0 207.692V23.0769ZM15.3846 92.3077H38.4615C44.5819 92.3077 50.4516 94.739 54.7794 99.0668C59.1072 103.395 61.5385 109.264 61.5385 115.385C61.5385 121.505 59.1072 127.375 54.7794 131.702C50.4516 136.03 44.5819 138.462 38.4615 138.462H30.7692V169.231H15.3846V92.3077ZM76.9231 92.3077H100C106.12 92.3077 111.99 94.739 116.318 99.0668C120.646 103.395 123.077 109.264 123.077 115.385C123.077 121.505 120.646 127.375 116.318 131.702C111.99 136.03 106.12 138.462 100 138.462H92.3077V169.231H76.9231V92.3077ZM153.846 169.231H169.231V107.692H184.615V92.3077H138.462V107.692H153.846V169.231Z" fill="#FFBE00"/>
</svg>
