<svg width="58" height="68" viewBox="0 0 58 68" fill="none" xmlns="http://www.w3.org/2000/svg">
<rect width="58" height="68" rx="4" fill="white"/>
<rect width="58" height="68" rx="4" fill="#4D7CFE" fill-opacity="0.08"/>
<path fill-rule="evenodd" clip-rule="evenodd" d="M17.0589 44.4689C17.0589 45.063 17.5422 45.5447 18.1383 45.5447C18.7345 45.5447 19.2178 45.063 19.2177 44.4689V37.3047C21.8943 37.7677 24.6484 37.2332 26.9551 35.803C28.8319 34.6798 29.9893 32.6663 30.012 30.4847C30.0904 28.7071 29.3609 26.9889 28.0258 25.8075C25.4525 23.5636 21.1521 23.6001 17.9936 24.0305C17.4546 24.1031 17.054 24.5641 17.0589 25.1062V44.4689ZM25.7721 34.0066C23.8117 35.2027 21.4624 35.5952 19.2178 35.1017H19.2177V26.0635C21.7657 25.553 24.4131 26.0449 26.6053 27.4362C27.4642 28.2108 27.9233 29.3324 27.8532 30.4847C27.8405 31.9449 27.0472 33.2874 25.7721 34.0066Z" fill="#4D7CFE"/>
<path d="M36.5793 45.5941C35.0947 45.6049 33.6525 45.0998 32.5012 44.1655C32.0726 43.7497 32.0634 43.0663 32.4807 42.6391C32.898 42.2119 33.5837 42.2029 34.0124 42.6186C35.053 43.3865 36.394 43.6252 37.6371 43.2641C37.8897 43.1565 38.6604 42.8338 38.6604 41.2482C38.6604 39.8262 37.8919 39.4238 36.0029 38.7848C34.3773 38.2298 32.1709 37.4896 32.1709 34.7875C32.0623 33.1121 33.025 31.5501 34.5737 30.8892C36.5693 30.121 38.8259 30.4907 40.4695 31.8552C40.903 32.2633 40.9223 32.9444 40.5127 33.3763C40.1032 33.8082 39.4198 33.8275 38.9864 33.4193C37.9699 32.649 36.6323 32.441 35.4286 32.8664C34.6799 33.198 34.2346 33.9764 34.3298 34.7875C34.3298 35.8482 34.9775 36.1666 36.6808 36.7432C38.4316 37.3305 40.8064 38.1352 40.8064 41.2418C40.9723 42.9369 40.0302 44.5475 38.4684 45.2391C37.8689 45.4821 37.2265 45.6028 36.5793 45.5941Z" fill="#4D7CFE"/>
</svg>
