<svg width="200" height="267" viewBox="0 0 200 267" fill="none" xmlns="http://www.w3.org/2000/svg">
<g clip-path="url(#clip0_49_26)">
<path d="M116.667 70.8333V0H12.5C5.57292 0 0 5.57292 0 12.5V254.167C0 261.094 5.57292 266.667 12.5 266.667H187.5C194.427 266.667 200 261.094 200 254.167V83.3333H129.167C122.292 83.3333 116.667 77.7083 116.667 70.8333ZM146.406 133.333H158.854C162.865 133.333 165.833 137.031 164.948 140.99L145.156 228.49C144.531 231.354 141.979 233.333 139.062 233.333H119.271C116.406 233.333 113.906 231.354 113.229 228.594C99.7917 174.687 102.396 186.302 99.8958 171.042H99.6354C99.0625 178.49 98.3854 180.104 86.3021 228.594C85.625 231.354 83.125 233.333 80.2604 233.333H60.9375C58.0208 233.333 55.4687 231.302 54.8437 228.437L35.1562 140.937C34.2708 137.031 37.2396 133.333 41.25 133.333H54.0104C56.9792 133.333 59.5833 135.417 60.1562 138.385C68.2812 179.01 70.625 195.417 71.0937 202.031C71.9271 196.719 74.8958 185 86.4062 138.125C87.0833 135.313 89.5833 133.385 92.5 133.385H107.656C110.573 133.385 113.073 135.365 113.75 138.177C126.25 190.469 128.75 202.76 129.167 205.573C129.062 199.74 127.812 196.302 140.417 138.281C140.937 135.365 143.49 133.333 146.406 133.333ZM200 63.4896V66.6667H133.333V0H136.51C139.844 0 143.021 1.30208 145.365 3.64583L196.354 54.6875C198.698 57.0312 200 60.2083 200 63.4896Z" fill="#E83508"/>
</g>
<defs>
<clipPath id="clip0_49_26">
<rect width="200" height="266.667" fill="white"/>
</clipPath>
</defs>
</svg>
