<svg width="200" height="255" viewBox="0 0 200 255" fill="none" xmlns="http://www.w3.org/2000/svg">
<path d="M197.33 63.8832C199.034 65.5891 200 67.8919 200 70.3085V245.639C200 250.671 195.937 254.737 190.909 254.737H9.09091C4.0625 254.737 0 250.671 0 245.639V9.09774C0 4.06555 4.0625 0 9.09091 0H129.744C132.159 0 134.489 0.966636 136.193 2.67246L197.33 63.8832ZM179.034 74.4878L125.568 20.9817V74.4878H179.034ZM117.994 117.657L100.602 146.741L83.0398 117.645C82.7361 117.143 82.308 116.727 81.7969 116.439C81.2858 116.15 80.7089 115.999 80.1222 115.999H69.2017C68.5582 115.999 67.9278 116.182 67.3835 116.525C67.0045 116.764 66.6762 117.075 66.4175 117.441C66.1588 117.807 65.9747 118.221 65.8758 118.658C65.7769 119.095 65.765 119.548 65.8409 119.99C65.9168 120.432 66.079 120.854 66.3182 121.233L89.7102 158.312L66.0028 196.062C65.6611 196.606 65.4799 197.236 65.4801 197.879C65.4801 198.784 65.8393 199.651 66.4786 200.291C67.1179 200.931 67.9851 201.29 68.8892 201.29H78.679C79.2604 201.29 79.8322 201.141 80.3398 200.858C80.8475 200.574 81.2743 200.165 81.5795 199.67L99.392 170.822L117.091 199.664C117.396 200.161 117.823 200.572 118.332 200.857C118.841 201.141 119.414 201.291 119.997 201.29H130.645C131.298 201.29 131.936 201.103 132.486 200.75C132.863 200.508 133.188 200.194 133.444 199.827C133.699 199.459 133.88 199.044 133.976 198.607C134.071 198.169 134.079 197.717 134 197.276C133.921 196.835 133.756 196.414 133.514 196.037L109.699 158.921L133.932 121.259C134.285 120.707 134.473 120.066 134.472 119.411C134.472 118.506 134.112 117.638 133.473 116.998C132.834 116.359 131.967 115.999 131.063 115.999H120.92C120.331 115.999 119.752 116.153 119.24 116.444C118.728 116.735 118.3 117.153 117.997 117.659L117.994 117.657Z" fill="#FFBE00"/>
</svg>
